<svg xmlns="http://www.w3.org/2000/svg" aria-hidden="true" style="position:absolute;width:0;height:0;overflow:hidden"><defs><symbol id="LinkedIn" viewBox="0 0 32 32"><path fill="#FFF" d="M24.96 5.333H7.16a1.744 1.744 0 0 0-1.664 1.005 1.73 1.73 0 0 0-.163.663v17.84a1.878 1.878 0 0 0 1.827 1.827h17.8a1.789 1.789 0 0 0 1.707-1.826V7.002a1.64 1.64 0 0 0-1.706-1.667zM12 23.12H8.893v-9.507H12v9.507zm-1.48-10.947a1.56 1.56 0 0 1-1.171-.465 1.567 1.567 0 0 1-.455-1.175 1.565 1.565 0 0 1 .464-1.186 1.58 1.58 0 0 1 1.19-.454 1.56 1.56 0 0 1 1.171.465 1.567 1.567 0 0 1 .455 1.175 1.565 1.565 0 0 1-.464 1.186 1.58 1.58 0 0 1-1.19.454zm12.6 10.947H20v-5.2c0-1.24-.44-2.093-1.547-2.093-.344.003-.678.112-.957.313s-.49.483-.603.807a1.906 1.906 0 0 0-.107.76v5.413h-3.067v-9.507h3.067v1.333a3.104 3.104 0 0 1 2.8-1.613c2.013 0 3.533 1.333 3.533 4.173v5.613z"/></symbol><symbol id="MapPin" viewBox="0 0 32 32"><path fill="#FFF" d="M15.635 25.698a.641.641 0 0 0 1.062 0l6.039-8.972a7.193 7.193 0 0 0 1.104-3.825c0-4.081-3.445-7.401-7.68-7.401s-7.68 3.32-7.68 7.401c0 1.353.383 2.678 1.119 3.848l6.036 8.948zM16.16 6.78c3.529 0 6.4 2.746 6.4 6.121 0 1.11-.314 2.197-.897 3.127l-5.498 8.166-5.494-8.145A5.911 5.911 0 0 1 9.76 12.9c0-3.375 2.871-6.121 6.4-6.121z"/><path fill="#FFF" d="M16.16 16.394c2.006 0 3.639-1.579 3.639-3.52s-1.632-3.52-3.639-3.52-3.639 1.579-3.639 3.52 1.633 3.52 3.639 3.52zm0-5.76c1.3 0 2.359 1.005 2.359 2.24s-1.058 2.24-2.359 2.24-2.359-1.005-2.359-2.24 1.059-2.24 2.359-2.24z"/></symbol><symbol id="Pinterest" viewBox="0 0 32 32"><path fill="#FFF" d="M25.314 3.279C23.111 1.164 20.063 0 16.731 0 11.641 0 8.51 2.087 6.78 3.837c-2.132 2.157-3.355 5.021-3.355 7.858 0 3.562 1.49 6.296 3.985 7.313.168.069.336.103.501.103.526 0 .943-.344 1.088-.897.084-.317.279-1.099.364-1.438.182-.67.035-.993-.361-1.46-.722-.854-1.058-1.864-1.058-3.178 0-3.903 2.906-8.051 8.293-8.051 4.274 0 6.929 2.429 6.929 6.34 0 2.468-.532 4.753-1.497 6.435-.671 1.169-1.851 2.562-3.662 2.562-.783 0-1.487-.322-1.93-.883-.419-.53-.558-1.215-.389-1.929.191-.806.45-1.648.702-2.461.459-1.485.892-2.888.892-4.008 0-1.915-1.177-3.201-2.929-3.201-2.226 0-3.97 2.261-3.97 5.147 0 1.415.376 2.474.546 2.881-.28 1.188-1.947 8.252-2.263 9.584-.183.778-1.284 6.919.539 7.409 2.048.55 3.878-5.431 4.065-6.107.151-.55.679-2.628 1.003-3.906.989.952 2.58 1.596 4.129 1.596 2.92 0 5.545-1.314 7.394-3.699 1.792-2.314 2.78-5.539 2.78-9.08 0-2.769-1.189-5.498-3.262-7.488z"/></symbol><symbol id="Twitter" viewBox="0 0 32 32"><path fill="#FFF" d="M10.064 28.8c12.075 0 18.68-9.85 18.68-18.391 0-.28 0-.559-.019-.836A13.216 13.216 0 0 0 32 6.227a13.265 13.265 0 0 1-3.77 1.018 6.509 6.509 0 0 0 2.886-3.576 13.281 13.281 0 0 1-4.17 1.569c-2.486-2.602-6.645-2.728-9.29-.28a6.408 6.408 0 0 0-1.899 6.177C10.479 10.874 5.56 8.419 2.226 4.382.484 7.336 1.375 11.113 4.26 13.01a6.596 6.596 0 0 1-2.981-.808v.082c.002 3.076 2.205 5.726 5.267 6.336a6.621 6.621 0 0 1-2.963.11c.859 2.634 3.325 4.438 6.133 4.49a13.3 13.3 0 0 1-9.717 2.679 18.8 18.8 0 0 0 10.064 2.898z"/></symbol><symbol id="ArrowLeft" viewBox="0 0 32 32"><path d="M28 15.333a.667.667 0 0 0-.667-.667H6A.667.667 0 0 0 6 16h21.333a.667.667 0 0 0 .667-.667z"/><path d="M11.138 10.195a.668.668 0 0 0-.943 0l-5.138 5.138 5.138 5.138a.668.668 0 0 0 .943-.943l-4.195-4.195 4.195-4.195a.668.668 0 0 0 0-.943z"/></symbol><symbol id="ArrowRight" viewBox="0 0 32 32"><path d="M5.037 15.36a.64.64 0 0 1 .64-.64h20.48a.64.64 0 1 1 0 1.28H5.677a.64.64 0 0 1-.64-.64z"/><path d="M21.225 10.427a.64.64 0 0 1 .905 0l4.932 4.933-4.932 4.933a.64.64 0 1 1-.905-.905l4.027-4.027-4.027-4.027a.64.64 0 0 1 0-.905z"/></symbol><symbol id="Email" viewBox="0 0 32 32"><path fill="#FFF" d="M5 7h22l1 1v16l-1 1H5l-1-1V8l1-1zm1 3.261V23h20V10.26l-10 9.091L6 10.26zM24.413 9H7.586l8.413 7.649L24.412 9z"/></symbol><symbol id="Facebook" viewBox="0 0 32 32"><path fill="#FFF" d="M18.914 32V17.6h4.372L24 11.2h-5.086V8.083c0-1.648.042-3.283 2.345-3.283h2.332V.224c0-.069-2.003-.224-4.03-.224-4.233 0-6.884 2.651-6.884 7.52v3.68H8v6.4h4.677V32h6.237z"/></symbol><symbol id="Phone" viewBox="0 0 32 32"><path fill="#FFF" d="M22 20c-2 2-2 4-4 4s-4-2-6-4-4-4-4-6 2-2 4-4-4-8-6-8-6 6-6 6c0 4 4.109 12.109 8 16s12 8 16 8c0 0 6-4 6-6s-6-8-8-6z"/></symbol></defs></svg>